# xmcd CD database file
#
# Track frame offsets:
#	150
#	15951
#	33250
#	48500
#	64875
#	83826
#	102301
#	119175
#	133350
#	149750
#
# Disc length: 2175 seconds
#
# Revision: 0
# Processed by: cddbd v1.4PL0 Copyright (c) Steve Scherf et al.
# Submitted via: Feurio! 1.65 - http://www.feurio.com
#
DISCID=94087d0a
DTITLE=Rick Astley - Whenever You Need Somebody
DYEAR=1900
DGENRE=Pop
TTITLE0=Never Gonna Give You Up
TTITLE1=Whenever You Need Somebody
TTITLE2=Together Forever
TTITLE3=It Would Take A Strong, Strong Man
TTITLE4=The Love Has Gone
TTITLE5=Don't Say Goodbye
TTITLE6=Slipping Away
TTITLE7=No More Looking For Love
TTITLE8=You Move Me
TTITLE9=When I Fall In Love
EXTD=
EXTT0=
EXTT1=
EXTT2=
EXTT3=
EXTT4=
EXTT5=
EXTT6=
EXTT7=
EXTT8=
EXTT9=
PLAYORDER=
